<svg id="Layer_1" data-name="Layer 1" xmlns="http://www.w3.org/2000/svg" viewBox="0 0 56 28"><defs><style>.cls-1{fill:#d0000d;}.cls-2{fill:#fff;}.cls-3{fill:#61676f;}</style></defs><title>fes_logo</title><path class="cls-1" d="M7.2,20.74H48.9A7.12,7.12,0,0,0,56,13.62V0H7.31A7.31,7.31,0,0,0,0,7.31V27.26A7.24,7.24,0,0,1,7.2,20.74Z"/><path class="cls-2" d="M19.55,2.73H7.3A4.57,4.57,0,0,0,2.73,7.3V18.58h0a3,3,0,0,0,3-3V7.3A1.55,1.55,0,0,1,7.3,5.75h9.23A3,3,0,0,0,19.55,2.73Z"/><path class="cls-2" d="M6.68,11.87h7.8a3,3,0,0,0,3-3H9.7a3,3,0,0,0-3,3Z"/><path class="cls-2" d="M22.57,7.3a1.55,1.55,0,0,1,1.55-1.55h9.23a3,3,0,0,0,3-3H24.12A4.57,4.57,0,0,0,19.55,7.3V18H32.68a3,3,0,0,0,3-3H22.57Z"/><path class="cls-2" d="M41,5.75h9.2a3,3,0,0,0,3-3H41a4.57,4.57,0,1,0-.05,9.14H48.6a1.57,1.57,0,0,1,1.58,1.51A1.55,1.55,0,0,1,48.63,15H39.4a3,3,0,0,0-3,3h12.2a4.57,4.57,0,1,0,.05-9.14H40.95A1.55,1.55,0,0,1,39.4,7.26,1.57,1.57,0,0,1,41,5.75Z"/><path class="cls-2" d="M23.51,11.87h7.8a3,3,0,0,0,3-3h-7.8a3,3,0,0,0-3,3Z"/><path class="cls-3" d="M48.9,22.16H7.2A5.83,5.83,0,0,0,1.38,28H48.69A7.31,7.31,0,0,0,56,20.69V18.35A8.5,8.5,0,0,1,48.9,22.16Z"/></svg>